<?xml version="1.0" encoding="UTF-8"?>
<!DOCTYPE svg PUBLIC "-//W3C//DTD SVG 1.1//EN" "http://www.w3.org/Graphics/SVG/1.1/DTD/svg11.dtd">
<svg xmlns="http://www.w3.org/2000/svg" version="1.1" width="512px" height="512px" style="shape-rendering:geometricPrecision; text-rendering:geometricPrecision; image-rendering:optimizeQuality; fill-rule:evenodd; clip-rule:evenodd" xmlns:xlink="http://www.w3.org/1999/xlink">
<g><path style="opacity:0.995" fill="#fff" d="M 52.5,111.5 C 187.5,111.333 322.5,111.5 457.5,112C 477.598,116.433 490.098,128.599 495,148.5C 495.667,219.5 495.667,290.5 495,361.5C 490.576,381.59 478.41,394.09 458.5,399C 323.5,399.667 188.5,399.667 53.5,399C 33.4103,394.576 20.9103,382.41 16,362.5C 15.3333,291.5 15.3333,220.5 16,149.5C 20.616,129.387 32.7827,116.72 52.5,111.5 Z M 63.5,143.5 C 191.5,143.333 319.5,143.5 447.5,144C 457.333,144.5 462.5,149.667 463,159.5C 463.667,223.5 463.667,287.5 463,351.5C 462.5,361.333 457.333,366.5 447.5,367C 319.5,367.667 191.5,367.667 63.5,367C 53.6667,366.5 48.5,361.333 48,351.5C 47.3333,287.5 47.3333,223.5 48,159.5C 48.6772,149.658 53.8438,144.324 63.5,143.5 Z"/></g>
<g><path style="opacity:1" fill="#fff" d="M 79.5,175.5 C 90.1667,175.5 100.833,175.5 111.5,175.5C 111.5,186.167 111.5,196.833 111.5,207.5C 100.833,207.5 90.1667,207.5 79.5,207.5C 79.5,196.833 79.5,186.167 79.5,175.5 Z"/></g>
<g><path style="opacity:1" fill="#fff" d="M 143.5,175.5 C 154.167,175.5 164.833,175.5 175.5,175.5C 175.5,186.167 175.5,196.833 175.5,207.5C 164.833,207.5 154.167,207.5 143.5,207.5C 143.5,196.833 143.5,186.167 143.5,175.5 Z"/></g>
<g><path style="opacity:1" fill="#fff" d="M 207.5,175.5 C 218.167,175.5 228.833,175.5 239.5,175.5C 239.5,186.167 239.5,196.833 239.5,207.5C 228.833,207.5 218.167,207.5 207.5,207.5C 207.5,196.833 207.5,186.167 207.5,175.5 Z"/></g>
<g><path style="opacity:1" fill="#fff" d="M 271.5,175.5 C 282.167,175.5 292.833,175.5 303.5,175.5C 303.5,186.167 303.5,196.833 303.5,207.5C 292.833,207.5 282.167,207.5 271.5,207.5C 271.5,196.833 271.5,186.167 271.5,175.5 Z"/></g>
<g><path style="opacity:1" fill="#fff" d="M 335.5,175.5 C 346.167,175.5 356.833,175.5 367.5,175.5C 367.5,186.167 367.5,196.833 367.5,207.5C 356.833,207.5 346.167,207.5 335.5,207.5C 335.5,196.833 335.5,186.167 335.5,175.5 Z"/></g>
<g><path style="opacity:1" fill="#fff" d="M 399.5,175.5 C 410.167,175.5 420.833,175.5 431.5,175.5C 431.5,186.167 431.5,196.833 431.5,207.5C 420.833,207.5 410.167,207.5 399.5,207.5C 399.5,196.833 399.5,186.167 399.5,175.5 Z"/></g>
<g><path style="opacity:1" fill="#fff" d="M 79.5,239.5 C 90.1667,239.5 100.833,239.5 111.5,239.5C 111.5,250.167 111.5,260.833 111.5,271.5C 100.833,271.5 90.1667,271.5 79.5,271.5C 79.5,260.833 79.5,250.167 79.5,239.5 Z"/></g>
<g><path style="opacity:1" fill="#fff" d="M 143.5,239.5 C 154.167,239.5 164.833,239.5 175.5,239.5C 175.5,250.167 175.5,260.833 175.5,271.5C 164.833,271.5 154.167,271.5 143.5,271.5C 143.5,260.833 143.5,250.167 143.5,239.5 Z"/></g>
<g><path style="opacity:1" fill="#fff" d="M 207.5,239.5 C 218.167,239.5 228.833,239.5 239.5,239.5C 239.5,250.167 239.5,260.833 239.5,271.5C 228.833,271.5 218.167,271.5 207.5,271.5C 207.5,260.833 207.5,250.167 207.5,239.5 Z"/></g>
<g><path style="opacity:1" fill="#fff" d="M 271.5,239.5 C 282.167,239.5 292.833,239.5 303.5,239.5C 303.5,250.167 303.5,260.833 303.5,271.5C 292.833,271.5 282.167,271.5 271.5,271.5C 271.5,260.833 271.5,250.167 271.5,239.5 Z"/></g>
<g><path style="opacity:1" fill="#fff" d="M 335.5,239.5 C 346.167,239.5 356.833,239.5 367.5,239.5C 367.5,250.167 367.5,260.833 367.5,271.5C 356.833,271.5 346.167,271.5 335.5,271.5C 335.5,260.833 335.5,250.167 335.5,239.5 Z"/></g>
<g><path style="opacity:1" fill="#fff" d="M 399.5,239.5 C 410.167,239.5 420.833,239.5 431.5,239.5C 431.5,250.167 431.5,260.833 431.5,271.5C 420.833,271.5 410.167,271.5 399.5,271.5C 399.5,260.833 399.5,250.167 399.5,239.5 Z"/></g>
<g><path style="opacity:1" fill="#fff" d="M 79.5,303.5 C 90.1667,303.5 100.833,303.5 111.5,303.5C 111.5,314.167 111.5,324.833 111.5,335.5C 100.833,335.5 90.1667,335.5 79.5,335.5C 79.5,324.833 79.5,314.167 79.5,303.5 Z"/></g>
<g><path style="opacity:1" fill="#fff" d="M 143.5,303.5 C 218.167,303.5 292.833,303.5 367.5,303.5C 367.5,314.167 367.5,324.833 367.5,335.5C 292.833,335.5 218.167,335.5 143.5,335.5C 143.5,324.833 143.5,314.167 143.5,303.5 Z"/></g>
<g><path style="opacity:1" fill="#fff" d="M 399.5,303.5 C 410.167,303.5 420.833,303.5 431.5,303.5C 431.5,314.167 431.5,324.833 431.5,335.5C 420.833,335.5 410.167,335.5 399.5,335.5C 399.5,324.833 399.5,314.167 399.5,303.5 Z"/></g>
</svg>
